<svg width="100" height="100" viewBox="0 0 100 100" fill="none" xmlns="http://www.w3.org/2000/svg">
<path d="M26.3625 79.1667C25.7736 79.1667 25.2792 78.9667 24.8792 78.5667C24.4792 78.1667 24.2792 77.6708 24.2792 77.0792C24.2792 76.4875 24.4792 75.9931 24.8792 75.5958C25.2792 75.1986 25.7736 75 26.3625 75H73.6375C74.2292 75 74.7236 75.2 75.1208 75.6C75.5181 76 75.7181 76.4958 75.7208 77.0875C75.7236 77.6792 75.5236 78.1736 75.1208 78.5708C74.7181 78.9681 74.2236 79.1667 73.6375 79.1667H26.3625ZM29.6 67.15C27.9611 67.15 26.5333 66.6361 25.3167 65.6083C24.1 64.5806 23.3194 63.275 22.975 61.6917L18 35.3125C17.8611 35.3681 17.7056 35.3986 17.5333 35.4042C17.3583 35.4125 17.2014 35.4167 17.0625 35.4167C15.7542 35.4167 14.6667 34.9722 13.8 34.0833C12.9333 33.1944 12.5 32.1167 12.5 30.85C12.5 29.5361 12.9347 28.4194 13.8042 27.5C14.6708 26.5833 15.7597 26.125 17.0708 26.125C18.3819 26.125 19.4972 26.5833 20.4167 27.5C21.3333 28.4194 21.7917 29.5361 21.7917 30.85C21.7917 31.1389 21.7806 31.4069 21.7583 31.6542C21.7361 31.9014 21.6542 32.1458 21.5125 32.3875L33.0125 37.0167C33.5458 37.2306 34.0806 37.2583 34.6167 37.1C35.15 36.9389 35.6028 36.6181 35.975 36.1375L47.2333 20.8875C46.6306 20.4931 46.1528 19.9708 45.8 19.3208C45.4472 18.6736 45.2708 17.975 45.2708 17.225C45.2708 15.9139 45.7306 14.7986 46.65 13.8792C47.5667 12.9597 48.6819 12.5 49.9958 12.5C51.3069 12.5 52.4236 12.9583 53.3458 13.875C54.2681 14.7917 54.7292 15.9028 54.7292 17.2083C54.7292 17.9972 54.5528 18.7083 54.2 19.3417C53.8472 19.9806 53.3694 20.4958 52.7667 20.8875L64.025 36.1375C64.3972 36.6181 64.85 36.9375 65.3833 37.0958C65.9194 37.2597 66.4542 37.2347 66.9875 37.0208L78.4875 32.3875C78.4125 32.1653 78.3472 31.9222 78.2917 31.6583C78.2361 31.3917 78.2083 31.1222 78.2083 30.85C78.2083 29.5361 78.6417 28.4194 79.5083 27.5C80.375 26.5833 81.4639 26.125 82.775 26.125C84.0861 26.125 85.2014 26.5833 86.1208 27.5C87.0403 28.4194 87.5 29.5361 87.5 30.85C87.5 32.1111 87.0389 33.1875 86.1167 34.0792C85.1944 34.9708 84.075 35.4167 82.7583 35.4167C82.6528 35.4167 82.5333 35.4 82.4 35.3667C82.2667 35.3333 82.1194 35.3153 81.9583 35.3125L77.025 61.6875C76.6778 63.2764 75.8972 64.5833 74.6833 65.6083C73.4694 66.6333 72.0417 67.1472 70.4 67.15H29.6Z" fill="#FFD600"/>
</svg>
